Patient4_TMGait_0pt7_02_right_43_GRF.mot
version=1
nRows=32
nColumns=19
inDegrees=no
endheader
time	F1x	F1y	F1z	M1x	M1y	M1z	F2x	F2y	F2z	M2x	M2y	M2z	EC1x	EC1y	EC1z	EC2x	EC2y	EC2z
48.72	3.608	785.5729	53.8817	-269.9468	-53.1813	755.568	-22.0853	12.231	1.6494	2.6088	6.5155	18.7468	-0.0592	0.0182	-0.0073	-0.0462	0.0165	0.9585
48.7314	2.3938	782.5161	56.3159	-270.0661	-53.7233	746.344	-14.7577	9.2201	1.0467	2.1745	4.422	13.5846	-0.0592	0.0182	-0.0073	-0.0462	0.0165	0.9585
48.7429	2.2657	778.9962	58.3257	-269.8257	-53.6362	736.3912	-8.6313	6.737	0.55423	1.8201	2.6604	9.3154	-0.0592	0.0182	-0.0073	-0.0462	0.0165	0.9585
48.7543	3.2574	775.2548	59.7315	-269.2263	-52.8785	726.2509	-3.9775	4.8847	0.19014	1.5616	1.3186	6.1064	-0.0592	0.0182	-0.0073	-0.0462	0.0165	0.9585
48.7657	5.1123	771.4429	60.6525	-268.3047	-51.6788	716.2746	-0.79793	3.6637	-0.057299	1.4018	0.40239	3.9801	-0.0592	0.0182	-0.0073	-0.0462	0.0165	0.9585
48.7771	7.5293	767.6053	61.1828	-267.1017	-50.2154	706.6282	1.1705	2.9437	-0.20427	1.3173	-0.16428	2.7188	-0.0592	0.0182	-0.0073	-0.0462	0.0165	0.9585
48.7886	10.1713	763.5752	61.5955	-265.6075	-48.8045	697.2108	2.1733	2.6059	-0.282	1.2853	-0.44768	2.131	-0.0592	0.0182	-0.0073	-0.0462	0.0165	0.9585
48.8	12.8279	759.0531	61.9099	-263.7875	-47.4882	687.7141	2.5426	2.4679	-0.31315	1.2657	-0.54268	1.9123	-0.0592	0.0182	-0.0073	-0.0462	0.0165	0.9585
48.8114	15.3749	753.6874	62.2766	-261.5866	-46.3941	677.7677	2.4821	2.396	-0.32908	1.2245	-0.50104	1.8774	-0.0592	0.0182	-0.0073	-0.0462	0.0165	0.9585
48.8229	17.8137	747.2317	62.5961	-258.9913	-45.3967	667.0349	2.2272	2.2195	-0.34265	1.1167	-0.3924	1.7662	-0.0592	0.0182	-0.0073	-0.0462	0.0165	0.9585
48.8343	20.1956	739.5982	62.899	-256.0269	-44.4784	655.33	1.8724	1.8205	-0.37123	0.90318	-0.24058	1.4445	-0.0592	0.0182	-0.0073	-0.0462	0.0165	0.9585
48.8457	22.6649	730.9385	63.0834	-252.7964	-43.4842	642.6838	1.5502	1.0417	-0.41511	0.53435	-0.089956	0.69803	-0.0592	0.0182	-0.0073	-0.0462	0.0165	0.9585
48.8571	25.3389	721.6302	63.1073	-249.4685	-42.3175	629.3501	1.2693	-0.19407	-0.48098	-0.020241	0.058227	-0.53664	-0.0592	0.0182	-0.0073	-0.0462	0.0165	0.9585
48.8686	28.3695	712.3526	62.9133	-246.3025	-40.8691	615.8655	1.0942	-1.9524	-0.55921	-0.77641	0.18189	-2.3604	-0.0592	0.0182	-0.0073	-0.0462	0.0165	0.9585
48.88	31.8615	704.0181	62.4587	-243.6222	-39.0554	602.9808	0.99752	-4.1168	-0.63302	-1.6889	0.27438	-4.6382	-0.0592	0.0182	-0.0073	-0.0462	0.0165	0.9585
48.8914	35.8477	697.6934	61.8164	-241.7834	-36.9143	591.6129	1.0242	-6.4524	-0.66937	-2.6532	0.28811	-7.1574	-0.0592	0.0182	-0.0073	-0.0462	0.0165	0.9585
48.9029	40.3098	694.3874	61.0734	-241.0976	-34.5002	582.6576	1.1361	-8.3939	-0.60666	-3.4422	0.1611	-9.2821	-0.0592	0.0182	-0.0073	-0.0462	0.0165	0.9585
48.9143	45.1077	694.7684	60.4641	-241.7334	-32.0314	576.7641	1.3623	-9.0907	-0.36246	-3.7009	-0.20655	-10.1064	-0.0592	0.0182	-0.0073	-0.0462	0.0165	0.9585
48.9257	50.053	698.9699	60.1816	-243.664	-29.7126	574.1588	1.642	-7.2373	0.17137	-2.8954	-0.91031	-8.1717	-0.0592	0.0182	-0.0073	-0.0462	0.0165	0.9585
48.9371	54.8783	706.5015	60.4247	-246.6494	-27.7863	574.5859	1.9795	-1.1449	1.093	-0.32579	-2.0405	-1.6269	-0.0592	0.0182	-0.0073	-0.0462	0.0165	0.9585
48.9486	59.3573	716.3889	61.2142	-250.3005	-26.3494	577.3631	2.2579	11.2767	2.5054	4.8638	-3.6526	11.8626	-0.0592	0.0182	-0.0073	-0.0462	0.0165	0.9585
48.96	63.2755	727.2269	62.4341	-254.107	-25.392	581.4557	2.4079	32.1945	4.4406	13.5638	-5.7243	34.6895	-0.0592	0.0182	-0.0073	-0.0462	0.0165	0.9585
48.9714	66.5351	737.355	63.8259	-257.5	-24.7767	585.5776	2.2421	63.4595	6.8492	26.5209	-8.1013	68.9375	-0.0592	0.0182	-0.0073	-0.0462	0.0165	0.9585
48.9829	69.0467	744.9288	65.0102	-259.8766	-24.2597	588.2636	1.5612	105.7606	9.4935	44.0009	-10.4158	115.3691	-0.0592	0.0182	-0.0073	-0.0462	0.0165	0.9585
48.9943	70.8506	748.0422	65.5878	-260.6298	-23.5605	587.9647	-0.16308	157.7146	11.9243	65.3963	-11.9635	172.495	-0.0592	0.0182	-0.0073	-0.0462	0.0165	0.9585
49.0057	71.9527	744.8643	65.1713	-259.1865	-22.3992	583.1779	-3.7859	214.558	13.5349	88.7103	-11.7405	235.0585	-0.0592	0.0182	-0.0073	-0.0462	0.0165	0.9585
49.0171	72.4175	733.792	63.4917	-255.05	-20.5856	572.5752	-9.7912	267.8711	13.3178	110.4693	-8.5814	293.7859	-0.0592	0.0182	-0.0073	-0.0462	0.0165	0.9585
49.0286	72.2322	713.6443	60.4541	-247.8579	-18.0845	555.1856	-16.8781	309.7835	10.7004	127.4886	-2.5203	339.8505	-0.0592	0.0182	-0.0073	-0.0462	0.0165	0.9585
49.04	71.3724	683.9621	56.0843	-237.4682	-14.9484	530.6249	-23.6337	338.4082	6.4219	138.9899	5.0602	371.0089	-0.0592	0.0182	-0.0073	-0.0462	0.0165	0.9585
49.0514	69.7742	644.9849	50.6489	-223.9522	-11.4111	499.107	-29.4111	356.7261	0.98643	146.1909	13.3635	390.3621	-0.0592	0.0182	-0.0073	-0.0462	0.0165	0.9585
49.0629	67.4428	597.5406	44.46	-207.5669	-7.6906	461.2925	-34.0413	369.8942	-4.7505	151.214	21.4289	403.5627	-0.0592	0.0182	-0.0073	-0.0462	0.0165	0.9585
49.0743	64.255	542.8828	37.8956	-188.7096	-4.0906	418.1886	-37.3868	383.0173	-10.1268	156.1623	28.542	416.1962	-0.0592	0.0182	-0.0073	-0.0462	0.0165	0.9585
